<svg width="14" height="14" viewBox="0 0 14 14" fill="none" xmlns="http://www.w3.org/2000/svg">
<path d="M0 7C0 7.27165 0.22018 7.49183 0.49183 7.49183H12.3358L9.23325 10.5915C9.13889 10.6859 9.09027 10.8117 9.09027 10.9375C9.09027 11.0633 9.13889 11.1891 9.23325 11.2835C9.42483 11.4751 9.73652 11.4751 9.9281 11.2835L13.8627 7.34599C14.0457 7.16299 14.0457 6.83701 13.8627 6.65114L9.92524 2.7165C9.73366 2.52492 9.42197 2.52492 9.23039 2.7165C9.03881 2.90809 9.03881 3.21977 9.23039 3.41136L12.3301 6.51103H0.48897C0.21732 6.50817 0 6.72835 0 7Z" fill="black" fill-opacity="0.75"/>
</svg>
