<svg width="30" height="30" viewBox="0 0 30 30" fill="none" xmlns="http://www.w3.org/2000/svg">
<path d="M26.0501 5.76249C25.4117 5.12375 24.6537 4.61705 23.8193 4.27135C22.985 3.92565 22.0908 3.74771 21.1876 3.74771C20.2845 3.74771 19.3903 3.92565 18.556 4.27135C17.7216 4.61705 16.9636 5.12375 16.3251 5.76249L15.0001 7.08749L13.6751 5.76249C12.3855 4.47288 10.6364 3.74838 8.81265 3.74838C6.98886 3.74838 5.23976 4.47288 3.95015 5.76249C2.66053 7.05211 1.93604 8.8012 1.93604 10.625C1.93604 12.4488 2.66053 14.1979 3.95015 15.4875L5.27515 16.8125L15.0001 26.5375L24.7251 16.8125L26.0501 15.4875C26.6889 14.849 27.1956 14.091 27.5413 13.2567C27.887 12.4224 28.0649 11.5281 28.0649 10.625C28.0649 9.72188 27.887 8.82762 27.5413 7.9933C27.1956 7.15897 26.6889 6.40094 26.0501 5.76249V5.76249Z" stroke="#9E00FF" stroke-opacity="0.87" stroke-width="2" stroke-linecap="round" stroke-linejoin="round"/>
</svg>
