<svg width="30" height="27" viewBox="0 0 30 27" fill="#D90429" xmlns="http://www.w3.org/2000/svg">
<rect width="30" height="27" fill="white"/>
<path d="M26.0499 5.18626C25.4115 4.61139 24.6534 4.15536 23.8191 3.84423C22.9848 3.5331 22.0905 3.37296 21.1874 3.37296C20.2843 3.37296 19.39 3.5331 18.5557 3.84423C17.7214 4.15536 16.9634 4.61139 16.3249 5.18626L14.9999 6.37876L13.6749 5.18626C12.3853 4.02561 10.6362 3.37356 8.8124 3.37356C6.98861 3.37356 5.23952 4.02561 3.9499 5.18626C2.66029 6.34691 1.93579 7.9211 1.93579 9.56251C1.93579 11.2039 2.66029 12.7781 3.9499 13.9388L5.2749 15.1313L14.9999 23.8838L24.7249 15.1313L26.0499 13.9388C26.6886 13.3642 27.1953 12.6819 27.541 11.931C27.8868 11.1801 28.0647 10.3753 28.0647 9.56251C28.0647 8.74971 27.8868 7.94488 27.541 7.19398C27.1953 6.44309 26.6886 5.76086 26.0499 5.18626V5.18626Z" stroke="#D90429" stroke-width="2" stroke-linecap="round" stroke-linejoin="round"/>
</svg>
