<?xml version="1.0" encoding="UTF-8"?>
<svg fill="none" viewBox="0 0 216 40" xmlns="http://www.w3.org/2000/svg">
<g fill="#fff" filter="url(#a)">
<path d="m18.211 21.02c-0.3007 0.8933-0.6562 1.545-1.0664 1.9551-0.4101 0.4102-1.4492 0.7656-3.1172 1.0664-1.6588 0.3099-3.4134 0.4649-5.2636 0.4649-2.9076 0-4.3613-0.9935-4.3613-2.9805 0-0.556 0.15495-1.6087 0.46485-3.1582l2.666-13.426c0.15495-0.77474 0.23242-1.3307 0.23242-1.668 0-0.3099-0.10937-0.59701-0.32812-0.86133 1.2122-0.45573 2.0553-0.68359 2.5293-0.68359 0.5651 0 0.8477 0.32356 0.8477 0.9707 0 0.16406-0.1504 0.96614-0.4512 2.4062l-2.3789 11.99c-0.34636 1.7227-0.51954 2.9212-0.51954 3.5957 0 1.1393 1.2624 1.709 3.7872 1.709 2.2513 0 4.5709-0.4603 6.9589-1.3809zm17.186-7.0957c0.0273 0.2188 0.041 0.4147 0.041 0.5879 0 2.6341-0.8932 4.931-2.6797 6.8906-1.7864 1.9597-3.8782 2.9395-6.2754 2.9395-1.832 0-3.3268-0.5833-4.4844-1.75-1.1484-1.1758-1.7226-2.6979-1.7226-4.5664 0-2.1237 0.7428-3.9649 2.2285-5.5234 1.4948-1.5586 3.2539-2.3379 5.2773-2.3379 0.3099 0 0.6381 0.041 0.9844 0.123-0.2278-0.41015-0.3418-0.7565-0.3418-1.039 0-0.4375 0.1504-0.85677 0.4512-1.2578 2.224 0.1823 4.0742 1.3216 5.5508 3.418 1.513 1.03 3.0898 1.5449 4.7304 1.5449 1.0665 0 2.2195-0.36 3.459-1.0801l0.6836 1.1622c-1.4492 1.0117-2.9349 1.5175-4.457 1.5175-1.0117 0-2.1602-0.2096-3.4453-0.6289zm-3.1035-1.1621c-0.7565-0.2278-1.4538-0.5924-2.0918-1.0937-0.4649-0.1003-0.8522-0.1504-1.1621-0.1504-1.5495 0-2.9258 0.6972-4.1289 2.0918-1.1941 1.3945-1.7911 2.985-1.7911 4.7715 0 1.2942 0.3601 2.3606 1.0801 3.1992 0.7292 0.8294 1.6634 1.2441 2.8028 1.2441 1.5403 0 2.8665-0.7747 3.9785-2.3242 1.1119-1.5586 1.6679-3.4134 1.6679-5.5645 0-0.7473-0.1185-1.472-0.3554-2.1738zm11.156 11.607c0.2005-0.802 0.3008-1.4948 0.3008-2.0781 0-2.2513-0.4785-4.7396-1.4355-7.4648-0.9571-2.7253-2.0782-4.7806-3.3633-6.166 0.7929-0.40105 1.5039-0.60157 2.1328-0.60157 1.0026 0 2.0143 1.3171 3.0351 3.9512 1.03 2.625 1.7683 5.8014 2.2149 9.5293 1.595-2.0235 2.9121-4.1107 3.9512-6.2618 1.039-2.151 1.6269-4.0058 1.7636-5.5644 1.3672 0.54691 2.0508 1.1667 2.0508 1.8594 0 0.6198-0.6562 2.0234-1.9687 4.2109-1.3034 2.1875-2.7207 4.2565-4.252 6.207-0.7474 0.948-1.3763 1.5586-1.8867 1.8321-0.5104 0.2734-1.3581 0.4557-2.543 0.5468zm14.643-6.0566c0 2.6706 1.1302 4.0059 3.3906 4.0059 1.9597 0 4.1198-0.9343 6.4805-2.8028s4.4889-4.3294 6.3848-7.3828l1.1621 0.6426c-1.7865 3.3359-4.1107 6.0976-6.9727 8.2851-2.8529 2.1875-5.5599 3.2813-8.1211 3.2813-1.6406 0-2.9394-0.5286-3.8965-1.5859-0.9479-1.0573-1.4218-2.502-1.4218-4.334 0-2.6433 0.8613-4.9037 2.5839-6.7813 1.7318-1.8776 3.8145-2.8164 6.2481-2.8164 1.1758 0 2.1146 0.29622 2.8164 0.88867 0.7109 0.59241 1.0664 1.3854 1.0664 2.3789 0 1.6315-0.9844 3.0762-2.9531 4.334-1.9597 1.2578-4.2155 1.8867-6.7676 1.8867zm0.1094-1.3125c1.9049-0.1003 3.5364-0.6471 4.8945-1.6406 1.3672-0.9935 2.0508-2.142 2.0508-3.4453 0-1.1667-0.5195-1.75-1.5586-1.75-1.2396 0-2.3835 0.6653-3.4317 1.9961-1.0481 1.3307-1.6998 2.944-1.955 4.8398zm28.67-4.1426c-1.8867 3.5821-3.7826 6.3939-5.6875 8.4356-1.905 2.0325-3.5912 3.0488-5.0586 3.0488-1.0664 0-1.9277-0.4102-2.584-1.2305-0.6562-0.8294-0.9844-1.9095-0.9844-3.2402 0-0.7474 0.1368-1.8047 0.4102-3.1719l2.7207-13.699c-0.3555 0.05469-0.6654 0.08203-0.9297 0.08203-2.0963 0-3.1445-0.875-3.1445-2.625v-0.31445c1.0937 0.61979 2.3288 0.92969 3.7051 0.92969s2.5794-0.3418 3.6093-1.0254l-3.1718 16.447c-0.2826 1.4766-0.4239 2.4929-0.4239 3.0489 0 1.5403 0.5651 2.3105 1.6953 2.3105 1.0938 0 2.1921-0.6152 3.295-1.8457 1.1119-1.2396 2.9303-3.8737 5.455-7.9023l1.0938 0.7519zm1.9551 11.061c-0.392-2.4427-1.0892-4.8581-2.0918-7.2461-0.9935-2.3972-2.069-4.2246-3.2266-5.4824 0.6745-0.5652 1.3672-0.8477 2.0781-0.8477 0.6107 0 1.1166 0.278 1.5176 0.834 0.4102 0.5469 0.9206 1.6543 1.5313 3.3222 0.957 2.6159 1.6725 4.9857 2.1464 7.1094 3.0808-4.8763 4.7487-9.1373 5.004-12.783 1.595 0.23698 2.3925 0.77018 2.3925 1.5996 0 0.875-0.72 2.6752-2.1601 5.4004-1.431 2.7253-2.9759 5.2227-4.6348 7.4922-1.914 2.6159-3.8144 4.6758-5.7012 6.1797-1.8867 1.513-3.5091 2.2695-4.8671 2.2695-1.2214 0-1.8321-0.5149-1.8321-1.5449 0-0.4193 0.1094-0.9115 0.3281-1.4766 0.5013 0.3099 1.1211 0.4649 1.8594 0.4649 2.6706 0 5.2227-1.7637 7.6563-5.291zm34.412-2.8985c-0.3 0.8933-0.656 1.545-1.066 1.9551-0.41 0.4102-1.449 0.7656-3.117 1.0664-1.659 0.3099-3.414 0.4649-5.264 0.4649-2.908 0-4.361-0.9935-4.361-2.9805 0-0.556 0.155-1.6087 0.465-3.1582l2.666-13.426c0.154-0.77474 0.232-1.3307 0.232-1.668 0-0.3099-0.109-0.59701-0.328-0.86133 1.212-0.45573 2.055-0.68359 2.529-0.68359 0.565 0 0.848 0.32356 0.848 0.9707 0 0.16406-0.151 0.96614-0.451 2.4062l-2.379 11.99c-0.347 1.7227-0.52 2.9212-0.52 3.5957 0 1.1393 1.263 1.709 3.787 1.709 2.252 0 4.571-0.4603 6.959-1.3809zm14.246-5.373c-1.166 2.4153-2.606 4.4707-4.32 6.166-1.704 1.6862-3.19 2.5293-4.457 2.5293-0.966 0-1.741-0.4284-2.324-1.2852-0.574-0.8658-0.862-2.0143-0.862-3.4453 0-2.8528 0.862-5.3639 2.584-7.5332 1.732-2.1692 3.733-3.2539 6.002-3.2539 1.377 0 2.867 0.42838 4.471 1.2852 0.237-0.84768 1.203-1.2715 2.899-1.2715 0.109 0 0.287 0.00456 0.533 0.01367-0.52 0.79297-0.916 1.8776-1.19 3.2539l-0.232 1.1621c-0.264 1.2942-0.397 2.8073-0.397 4.539 0 1.9961 0.465 2.9942 1.395 2.9942 0.984 0 2.329-0.8203 4.033-2.461 1.714-1.6497 3.395-3.746 5.045-6.289l1.066 0.7383c-1.686 3.0078-3.613 5.5188-5.783 7.5332-2.169 2.0052-4.033 3.0078-5.592 3.0078-1.968 0-2.953-1.6406-2.953-4.9219 0-0.6836 0.028-1.6042 0.082-2.7617zm0.643-3.2676c-1.914-1.2487-3.505-1.873-4.772-1.873-1.376 0-2.565 0.8385-3.568 2.5156-1.002 1.668-1.504 3.6504-1.504 5.9473 0 1.8411 0.602 2.7617 1.805 2.7617 1.303 0 3.796-2.862 7.478-8.586 0.046-0.0729 0.233-0.3281 0.561-0.7656zm15.559 11.539c-0.392-2.4427-1.09-4.8581-2.092-7.2461-0.994-2.3972-2.069-4.2246-3.227-5.4824 0.675-0.5652 1.367-0.8477 2.078-0.8477 0.611 0 1.117 0.278 1.518 0.834 0.41 0.5469 0.92 1.6543 1.531 3.3222 0.957 2.6159 1.673 4.9857 2.147 7.1094 3.08-4.8763 4.748-9.1373 5.004-12.783 1.595 0.23698 2.392 0.77018 2.392 1.5996 0 0.875-0.72 2.6752-2.16 5.4004-1.431 2.7253-2.976 5.2227-4.635 7.4922-1.914 2.6159-3.814 4.6758-5.701 6.1797-1.887 1.513-3.509 2.2695-4.867 2.2695-1.222 0-1.832-0.5149-1.832-1.5449 0-0.4193 0.109-0.9115 0.328-1.4766 0.501 0.3099 1.121 0.4649 1.859 0.4649 2.671 0 5.223-1.7637 7.657-5.291zm13.125-5.6055c0 2.6706 1.13 4.0059 3.39 4.0059 1.96 0 4.12-0.9343 6.481-2.8028 2.36-1.8685 4.489-4.3294 6.384-7.3828l1.163 0.6426c-1.787 3.3359-4.111 6.0976-6.973 8.2851-2.853 2.1875-5.56 3.2813-8.121 3.2813-1.641 0-2.94-0.5286-3.897-1.5859-0.948-1.0573-1.422-2.502-1.422-4.334 0-2.6433 0.862-4.9037 2.584-6.7813 1.732-1.8776 3.815-2.8164 6.248-2.8164 1.176 0 2.115 0.29622 2.817 0.88867 0.711 0.59241 1.066 1.3854 1.066 2.3789 0 1.6315-0.984 3.0762-2.953 4.334-1.96 1.2578-4.215 1.8867-6.767 1.8867zm0.109-1.3125c1.905-0.1003 3.536-0.6471 4.894-1.6406 1.368-0.9935 2.051-2.142 2.051-3.4453 0-1.1667-0.519-1.75-1.558-1.75-1.24 0-2.384 0.6653-3.432 1.9961-1.048 1.3307-1.7 2.944-1.955 4.8398zm16.83 6.9043c-0.62 0.2917-1.117 0.4375-1.49 0.4375-0.93 0-1.395-0.4102-1.395-1.2305 0-0.4192 0.164-1.4629 0.492-3.1308l0.684-3.4043c0.419-2.0235 0.629-3.5228 0.629-4.4981 0-0.5286-0.15-0.9707-0.451-1.3261 0.957-0.3282 1.736-0.4922 2.338-0.4922 0.638 0 0.957 0.4056 0.957 1.2168 0 0.5013-0.228 1.8183-0.684 3.9511l-0.779 3.9785c1.722-3.345 3.454-5.9427 5.195-7.7929 1.75-1.8594 3.336-2.7891 4.758-2.7891 0.501 0 0.934 0.14583 1.299 0.4375 0.364 0.28255 0.547 0.6289 0.547 1.0391 0 0.638-0.693 1.4857-2.079 2.543-0.346-0.7201-0.838-1.0801-1.476-1.0801-1.158 0-2.634 1.2304-4.43 3.6914-1.112 1.5312-2.078 3.1126-2.898 4.7441-0.821 1.6224-1.231 2.78-1.231 3.4727l0.014 0.2324zm19.961-4.7168c0.31 0.6927 0.465 1.3535 0.465 1.9824 0 1.3946-0.584 2.6068-1.75 3.6367-1.167 1.0391-2.534 1.5586-4.102 1.5586-0.92 0-1.704-0.2369-2.351-0.7109s-0.971-1.0436-0.971-1.709c0-0.7109 0.442-1.431 1.326-2.1601 0.893-0.7292 2.384-1.5951 4.471-2.5977l-1.094-1.7637c-1.331-2.1419-1.996-3.8144-1.996-5.0176 0-1.7317 1.007-3.1262 3.021-4.1835 1.24 0.47395 1.86 1.071 1.86 1.791 0 1.0208-0.789 2.0006-2.365 2.9394l1.558 2.8711 1.217 2.2149c1.741-1.0391 3.053-1.9278 3.938-2.6661 0.884-0.7473 2-1.8958 3.349-3.4453l1.094 0.67c-1.96 2.625-4.516 4.8216-7.67 6.5898zm-2.324 1.2305c-2.68 1.4401-4.02 2.5566-4.02 3.3496 0 0.7474 0.543 1.1211 1.627 1.1211 0.802 0 1.454-0.2735 1.955-0.8203 0.502-0.5378 0.752-1.2351 0.752-2.0918 0-0.5105-0.105-1.03-0.314-1.5586z"/>
<path d="m18.211 21.02 0.4739 0.1596 0.3398-1.0091-0.9935 0.383 0.1798 0.4665zm-4.1836 3.0215-0.0887-0.4921-0.0031 6e-4 0.0918 0.4915zm-9.1601-5.6738 0.49029 0.098 1.3e-4 -6e-4 -0.49042-0.0974zm2.666-13.426-0.49029-0.09806-1.3e-4 6.7e-4 0.49042 0.09739zm-0.0957-2.5293-0.17595-0.46802-0.65623 0.2467 0.44698 0.5401 0.3852-0.31878zm2.9258 2.6934-0.48948-0.10223-9.8e-4 0.00492 0.49046 0.09731zm-2.3789 11.99 0.49019 0.0986 2.5e-4 -0.0013-0.49044-0.0973zm9.7527 3.7643c-0.2898 0.8606-0.6143 1.4292-0.9461 1.7611l0.7071 0.7071c0.4884-0.4885 0.8749-1.2233 1.1867-2.1491l-0.9477-0.3191zm-0.9461 1.7611c-0.1219 0.1219-0.3945 0.2833-0.8952 0.4546-0.4866 0.1665-1.1362 0.3252-1.9572 0.4733l0.1775 0.9841c0.847-0.1528 1.5508-0.3222 2.1034-0.5112 0.5383-0.1842 0.9903-0.4055 1.2786-0.6937l-0.7071-0.7071zm-2.8555 0.9284c-1.6258 0.3037-3.3495 0.4564-5.1718 0.4564v1c1.8781 0 3.6636-0.1573 5.3555-0.4734l-0.1837-0.983zm-5.1718 0.4564c-1.4124 0-2.3834-0.2442-2.9889-0.658-0.57133-0.3904-0.87245-0.9694-0.87245-1.8225h-1c0 1.1339 0.42578 2.0451 1.3082 2.6482 0.84826 0.5796 2.058 0.8323 3.5531 0.8323v-1zm-3.8613-2.4805c0-0.4989 0.14398-1.5043 0.45514-3.0602l-0.98058-0.1961c-0.30863 1.5432-0.47456 2.6432-0.47456 3.2563h1zm0.45527-3.0608 2.666-13.426-0.98085-0.19477-2.666 13.426 0.98085 0.1948zm2.6659-13.425c0.15514-0.77567 0.24213-1.3746 0.24213-1.766h-1c0 0.28303-0.06795 0.7961-0.22271 1.5699l0.98058 0.19611zm0.24213-1.766c0-0.43893-0.15845-0.83638-0.44292-1.1801l-0.7704 0.63756c0.15303 0.18491 0.21332 0.36168 0.21332 0.54255h1zm-0.65217-0.39331c0.59757-0.22465 1.0953-0.38972 1.496-0.49803 0.40833-0.11036 0.68694-0.15358 0.85734-0.15358v-1c-0.30357 0-0.68348 0.07071-1.1182 0.18821-0.44235 0.11956-0.97234 0.29628-1.587 0.52736l0.3519 0.93604zm2.3534-0.65161c0.1865 0 0.2405 0.05026 0.2591 0.07155 0.0299 0.03423 0.0886 0.13727 0.0886 0.39915h1c0-0.38526-0.0827-0.76757-0.3353-1.0569-0.264-0.30228-0.6338-0.41379-1.0124-0.41379v1zm0.3477 0.4707c0-0.00406-0.0025 0.03872-0.0223 0.16577-0.0177 0.11344-0.0448 0.26838-0.082 0.46669-0.0742 0.39603-0.1862 0.95267-0.33636 1.6716l0.97886 0.20445c0.1507-0.72121 0.2643-1.2857 0.3404-1.6917 0.038-0.20273 0.0673-0.36908 0.0872-0.49717 0.0178-0.11449 0.0342-0.23349 0.0342-0.31958h-1zm-0.44166 2.3089-2.3789 11.99 0.98089 0.1946 2.3789-11.99-0.98086-0.19461zm-2.3787 11.989c-0.34573 1.7196-0.52934 2.9637-0.52934 3.6943h1c0-0.6183 0.16275-1.7714 0.50973-3.4971l-0.98039-0.1972zm-0.52934 3.6943c0 0.3836 0.10847 0.7387 0.33452 1.0448 0.2218 0.3002 0.53602 0.5255 0.9066 0.6927 0.72907 0.329 1.7616 0.4715 3.046 0.4715v-1c-1.2404 0-2.1014-0.1423-2.6347-0.383-0.26061-0.1176-0.41977-0.2484-0.51357-0.3754-0.08954-0.1212-0.13887-0.2645-0.13887-0.4506h-1zm4.2872 2.209c2.3206 0 4.7012-0.4746 7.1388-1.4143l-0.3597-0.9331c-2.3384 0.9014-4.5972 1.3474-6.7791 1.3474v1zm24.144-8.9766 0.1551-0.4753-0.749-0.2443 0.0977 0.7816 0.4962-0.062zm-2.6387 7.4785-0.3695-0.3368 0.3695 0.3368zm-10.76 1.1895-0.3577 0.3494 0.0028 0.0028 0.3549-0.3522zm0.5059-10.09-0.3609-0.3461-1e-3 0.0011 0.3619 0.345zm6.2617-2.2149-0.1152 0.4865 1.1026 0.2612-0.5503-0.9905-0.4371 0.2428zm0.1094-2.2969 0.0408-0.49832-0.2751-0.02256-0.1657 0.22088 0.4 0.3zm5.5508 3.418-0.4088 0.2879 0.0523 0.0743 0.0751 0.0511 0.2814-0.4133zm8.1894 0.4648 0.431-0.2535-0.2521-0.4286-0.43 0.2498 0.2511 0.4323zm0.6836 1.1622 0.2862 0.4099 0.3793-0.2648-0.2345-0.3987-0.431 0.2536zm-11.006-0.2735 0.4737-0.1599-0.0825-0.2444-0.247-0.0744-0.1442 0.4787zm-2.0918-1.0937 0.3089-0.3932-0.0907-0.0713-0.1128-0.0243-0.1054 0.4888zm-5.291 1.9414-0.3786-0.3266-0.0012 0.0014 0.3798 0.3252zm-0.711 7.9707-0.3793 0.3257 0.0038 0.0044 0.3755-0.3301zm6.7813-1.0801 0.4062 0.2915 8e-4 -0.0011-0.407-0.2904zm3.9198-6.5142c0.0255 0.2035 0.0372 0.3782 0.0372 0.5259h1c0-0.1986-0.0156-0.4158-0.0449-0.6499l-0.9923 0.124zm0.0372 0.5259c0 2.5086-0.8461 4.6856-2.5492 6.5538l0.739 0.6737c1.8698-2.0511 2.8102-4.4678 2.8102-7.2275h-1zm-2.5492 6.5538c-1.7029 1.868-3.6652 2.7763-5.9059 2.7763v1c2.5536 0 4.7749-1.0513 6.6449-3.1026l-0.739-0.6737zm-5.9059 2.7763c-1.7155 0-3.0769-0.5414-4.1294-1.6022l-0.7099 0.7044c1.2626 1.2725 2.8908 1.8978 4.8393 1.8978v-1zm-4.1267-1.5994c-1.0445-1.0693-1.5803-2.4597-1.5803-4.217h-1c0 1.9797 0.6126 3.6336 1.865 4.9158l0.7153-0.6988zm-1.5803-4.217c0-1.9933 0.692-3.7114 2.0904-5.1785l-0.7238-0.6899c-1.573 1.6501-2.3666 3.6142-2.3666 5.8684h1zm2.0894-5.1774c1.4075-1.4676 3.0391-2.1839 4.9164-2.1839v-1c-2.1695 0-4.0561 0.84224-5.6382 2.4918l0.7218 0.6921zm4.9164-2.1839c0.2659 0 0.5551 0.0352 0.8692 0.1095l0.2305-0.97303c-0.3787-0.08968-0.7457-0.13651-1.0997-0.13651v1zm1.4215-0.6198c-0.2107-0.37934-0.2789-0.63741-0.2789-0.79625h-1c0 0.40625 0.1598 0.84085 0.4047 1.2818l0.8742-0.4856zm-0.2789-0.79625c0-0.31394 0.1055-0.63016 0.3512-0.95782l-0.8-0.6c-0.3558 0.47443-0.5512 0.99676-0.5512 1.5578h1zm-0.0896-0.75949c2.0532 0.1683 3.7774 1.2122 5.1828 3.2075l0.8176-0.5758c-1.5478-2.1974-3.524-3.4321-5.9188-3.6284l-0.0816 0.99665zm5.3102 3.3329c1.586 1.0797 3.2594 1.6316 5.0118 1.6316v-1c-1.5288 0-3.009-0.478-4.4491-1.4582l-0.5627 0.8266zm5.0118 1.6316c1.18 0 2.4196-0.3981 3.7102-1.1477l-0.5023-0.8647c-1.1886 0.6905-2.255 1.0124-3.2079 1.0124v1zm3.0281-1.3265 0.6836 1.1621 0.8619-0.5071-0.6836-1.1621-0.8619 0.5071zm0.8283 0.4986c-1.3792 0.9628-2.7668 1.4275-4.1708 1.4275v1c1.6403 0 3.224-0.547 4.7432-1.6076l-0.5724-0.8199zm-4.1708 1.4275c-0.9447 0-2.0394-0.1961-3.2902-0.6042l-0.3102 0.9507c1.3195 0.4304 2.5217 0.6535 3.6004 0.6535v-1zm-6.4046-1.7697c-0.6952-0.2094-1.3368-0.5444-1.9271-1.0082l-0.6178 0.7863c0.6857 0.5388 1.4386 0.933 2.2565 1.1794l0.2884-0.9575zm-2.1306-1.1038c-0.4832-0.1042-0.9087-0.1616-1.2675-0.1616v1c0.2609 0 0.6102 0.0428 1.0567 0.1391l0.2108-0.9775zm-1.2675-0.1616c-1.7226 0-3.2291 0.7834-4.5075 2.2652l0.7571 0.6532c1.1279-1.3073 2.374-1.9184 3.7504-1.9184v-1zm-4.5087 2.2666c-1.2693 1.4824-1.9113 3.1874-1.9113 5.0967h1c0-1.6637 0.5521-3.1397 1.6709-4.4463l-0.7596-0.6504zm-1.9113 5.0967c0 1.3922 0.3899 2.5806 1.2008 3.5249l0.7587-0.6515c-0.6293-0.7327-0.9595-1.6771-0.9595-2.8734h-1zm1.2046 3.5293c0.8275 0.9413 1.9004 1.414 3.1783 1.414v-1c-1.0008 0-1.7964-0.3566-2.4273-1.0742l-0.751 0.6602zm3.1783 1.414c1.7401 0 3.2039-0.8873 4.3847-2.5327l-0.8125-0.583c-1.0431 1.4535-2.2317 2.1157-3.5722 2.1157v1zm4.3855-2.5338c1.1798-1.6537 1.7609-3.6131 1.7609-5.8549h-1c0 2.0604-0.5308 3.8106-1.575 5.2741l0.8141 0.5808zm1.7609-5.8549c0-0.8012-0.1272-1.5799-0.3817-2.3337l-0.9475 0.3199c0.2195 0.6498 0.3292 1.3203 0.3292 2.0138h1zm10.301 9.4336-0.4851-0.1212-0.1682 0.673 0.6917-0.0532-0.0384-0.4986zm-4.498-15.709-0.2257-0.44619-0.5923 0.29958 0.4514 0.48665 0.3666-0.34004zm5.1679 3.3496-0.4662 0.1806 8e-4 2e-3 0.4654-0.1826zm2.2149 9.5293-0.4965 0.0594 0.1433 1.1962 0.7459-0.9461-0.3927-0.3095zm5.7148-11.826 0.1857-0.46424-0.6249-0.24998-0.0589 0.67053 0.4981 0.04369zm0.0821 6.0703-0.4288-0.2572-8e-4 0.0013 0.4296 0.2559zm-4.252 6.207 0.3926 0.3096 7e-4 -8e-4 -0.3933-0.3088zm-3.9446 2.5002c0.2067-0.8267 0.3157-1.5621 0.3157-2.1994h-1c0 0.5294-0.0915 1.1794-0.2859 1.9569l0.9702 0.2425zm0.3157-2.1994c0-2.3211-0.4931-4.8663-1.4638-7.6305l-0.9435 0.3313c0.9434 2.6864 1.4073 5.1177 1.4073 7.2992h1zm-1.4638-7.6305c-0.9689-2.7592-2.1186-4.8853-3.4685-6.3404l-0.7331 0.68008c1.2205 1.3157 2.313 3.3003 3.2581 5.9916l0.9435-0.3313zm-3.6094-5.5542c0.7501-0.37935 1.3822-0.54775 1.9072-0.54775v-1c-0.7329 0-1.5226 0.23265-2.3585 0.65538l0.4513 0.89237zm1.9072-0.54775c0.2671 0 0.6415 0.17703 1.1142 0.79239 0.4636 0.60344 0.9513 1.5404 1.4547 2.8394l0.9325-0.3613c-0.5174-1.3351-1.046-2.3737-1.5942-3.0873-0.539-0.7017-1.1718-1.1832-1.9072-1.1832v1zm2.5697 3.6338c1.0103 2.5748 1.7407 5.7075 2.1838 9.4061l0.9929-0.1189c-0.4501-3.7571-1.1962-6.9773-2.2458-9.6525l-0.9309 0.3653zm3.073 9.6562c1.6157-2.0497 2.9526-4.1676 4.0087-6.3538l-0.9005-0.4349c-1.0221 2.1159-2.3193 4.1725-3.8936 6.1696l0.7854 0.6191zm4.0087-6.3538c1.053-2.1798 1.6675-4.0962 1.8115-5.7382l-0.9962-0.08738c-0.1294 1.4751-0.6906 3.2684-1.7158 5.3907l0.9005 0.4349zm1.1277-5.3177c0.6573 0.2629 1.1086 0.5279 1.388 0.7812 0.2737 0.2482 0.3485 0.4514 0.3485 0.614h1c0-0.5301-0.267-0.9832-0.6768-1.3548-0.4042-0.3665-0.9784-0.68489-1.6883-0.96885l-0.3714 0.92845zm1.7365 1.3952c0 0.0781-0.023 0.2242-0.0987 0.4575-0.0735 0.2267-0.1875 0.5084-0.3464 0.8483-0.3177 0.6795-0.8001 1.5607-1.4524 2.6479l0.8575 0.5145c0.6602-1.1004 1.1622-2.0148 1.5008-2.7389 0.1692-0.362 0.3012-0.6841 0.3918-0.9633 0.0884-0.2725 0.1474-0.5343 0.1474-0.766h-1zm-1.8983 3.955c-1.2927 2.1696-2.698 4.2209-4.2157 6.1542l0.7866 0.6175c1.5448-1.9678 2.9742-4.0545 4.2882-6.2599l-0.8591-0.5118zm-4.215 6.1534c-0.7411 0.9398-1.3167 1.4793-1.7302 1.7008l0.4722 0.8815c0.6073-0.3253 1.2895-1.0072 2.0432-1.9632l-0.7852-0.6191zm-1.7302 1.7008c-0.4133 0.2214-1.1719 0.3989-2.3452 0.4891l0.0767 0.9971c1.1964-0.0921 2.1331-0.2792 2.7407-0.6047l-0.4722-0.8815zm12.336-5.069v-0.5h-0.5v0.5h0.5zm9.8711 1.2031-0.3103-0.392 0.3103 0.392zm6.3848-7.3828 0.2419-0.4376-0.416-0.23-0.2507 0.4039 0.4248 0.2637zm1.1621 0.6426 0.4407 0.236 0.2329-0.4349-0.4317-0.2387-0.2419 0.4376zm-6.9727 8.2851-0.3036-0.3972-6e-4 5e-4 0.3042 0.3967zm-12.018 1.6954-0.3723 0.3337 0.0016 0.0018 0.3707-0.3355zm1.1621-11.115-0.3675-0.339-9e-4 1e-3 0.3684 0.338zm9.0645-1.9277-0.3225 0.38211 0.0024 2e-3 0.3201-0.38411zm-1.8867 6.7129-0.2692-0.4214-9e-4 6e-4 0.2701 0.4208zm-6.6582 0.5742-0.4956-0.0667-0.0804 0.5977 0.6023-0.0317-0.0263-0.4993zm4.8945-1.6406-0.2939-0.4045-0.0013 9e-4 0.2952 0.4036zm-5.5039 2.9531c0 1.3939 0.2932 2.5325 0.966 3.3274 0.6863 0.8109 1.6935 1.1785 2.9246 1.1785v-1c-1.0292 0-1.7174-0.3001-2.1613-0.8245-0.4574-0.5404-0.7293-1.4047-0.7293-2.6814h-1zm3.8906 4.5059c2.1186 0 4.3867-1.0079 6.7908-2.9107l-0.6206-0.7841c-2.3173 1.8341-4.3695 2.6948-6.1702 2.6948v1zm6.7908-2.9107c2.4138-1.9105 4.5787-4.418 6.4992-7.5111l-0.8495-0.5275c-1.8711 3.0136-3.9627 5.428-6.2703 7.2545l0.6206 0.7841zm5.8325-7.3373 1.1621 0.6426 0.4839-0.8752-1.1621-0.6426-0.4839 0.8752zm0.9633-0.0311c-1.7545 3.2763-4.0331 5.982-6.8355 8.124l0.6072 0.7945c2.9216-2.233 5.2914-5.0508 7.1098-8.4464l-0.8815-0.4721zm-6.8361 8.1245c-2.8 2.1469-5.4024 3.178-7.8169 3.178v1c2.7079 0 5.5196-1.1564 8.4254-3.3845l-0.6085-0.7935zm-7.8169 3.178c-1.5228 0-2.6782-0.4851-3.5258-1.4215l-0.7414 0.6711c1.0665 1.1782 2.5088 1.7504 4.2672 1.7504v-1zm-3.5242-1.4197c-0.8441-0.9415-1.2941-2.2546-1.2941-4.0002h-1c0 1.9184 0.4978 3.4946 1.5495 4.6677l0.7446-0.6675zm-1.2941-4.0002c0-2.5232 0.8178-4.6616 2.4524-6.4433l-0.7369-0.676c-1.8107 1.9736-2.7155 4.356-2.7155 7.1193h1zm2.4515-6.4423c1.6424-1.7807 3.5941-2.6554 5.8805-2.6554v-1c-2.5808 0-4.7945 1.0029-6.6156 2.9774l0.7351 0.678zm5.8805-2.6554c1.0915 0 1.9051 0.27374 2.4939 0.77078l0.645-0.76418c-0.8149-0.68789-1.8789-1.0066-3.1389-1.0066v1zm2.4963 0.77278c0.5877 0.4898 0.8865 1.1373 0.8865 1.9948h1c0-1.1294-0.4122-2.0679-1.2463-2.763l-0.6402 0.76822zm0.8865 1.9948c0 1.3938-0.8298 2.7035-2.7223 3.9126l0.5384 0.8427c2.045-1.3065 3.1839-2.8861 3.1839-4.7553h-1zm-2.7232 3.9132c-1.8714 1.2012-4.0316 1.8075-6.4975 1.8075v1c2.6383 0 4.9898-0.6515 7.0377-1.9659l-0.5402-0.8416zm-6.3618 1.4943c1.9886-0.1047 3.7168-0.6781 5.1634-1.7364l-0.5904-0.8071c-1.2695 0.9287-2.8043 1.449-4.6256 1.5449l0.0526 0.9986zm5.1621-1.7354c1.4544-1.0569 2.2569-2.3405 2.2569-3.8498h-1c0 1.0973-0.5647 2.1106-1.8447 3.0408l0.5878 0.809zm2.2569-3.8498c0-0.6471-0.1428-1.2258-0.5163-1.6451-0.3833-0.43033-0.9297-0.60494-1.5423-0.60494v1c0.4265 0 0.6593 0.117 0.7956 0.27 0.146 0.164 0.263 0.4603 0.263 0.98h1zm-2.0586-2.25c-1.4441 0-2.7185 0.78264-3.8244 2.1867l0.7855 0.6187c0.9904-1.2573 2.0038-1.8054 3.0389-1.8054v-1zm-3.8244 2.1867c-1.1104 1.4097-1.7923 3.1097-2.0579 5.0825l0.9911 0.1334c0.2449-1.8189 0.8664-3.3454 1.8523-4.5972l-0.7855-0.6187zm27.108 1.0066 0.4424 0.233 0.2071-0.3932-0.3662-0.2518-0.2833 0.412zm-5.6875 8.4356 0.3648 0.3419 8e-4 -8e-4 -0.3656-0.3411zm-7.6426 1.8183-0.3921 0.3103 0.0017 0.0021 0.3904-0.3124zm-0.5742-6.4121 0.4903 0.0981 1e-4 -7e-4 -0.4904-0.0974zm2.7207-13.699 0.4904 0.0974 0.1391-0.70012-0.7055 0.10853 0.076 0.49419zm-4.0742-2.8574 0.2465-0.43501-0.7465-0.42302v0.85803h0.5zm7.3144-0.095703 0.491 0.094681 0.2257-1.1705-0.9932 0.65918 0.2765 0.41659zm-3.1718 16.447-0.491-0.0946-1e-4 7e-4 0.4911 0.0939zm4.5664 3.5137-0.3722-0.3339-2e-4 2e-4 0.3724 0.3337zm5.455-7.9023 0.2833-0.4121-0.4299-0.2955-0.277 0.4421 0.4236 0.2655zm0.6514 0.5189c-1.8744 3.5587-3.7463 6.3292-5.6107 8.3275l0.7312 0.6822c1.9454-2.0851 3.8653-4.9383 5.7643-8.5437l-0.8848-0.466zm-5.6099 8.3267c-1.8868 2.0131-3.4464 2.8907-4.6938 2.8907v1c1.6875 0 3.5003-1.155 5.4234-3.2069l-0.7296-0.6838zm-4.6938 2.8907c-0.9172 0-1.6339-0.3432-2.1936-1.0428l-0.7808 0.6247c0.7528 0.941 1.7588 1.4181 2.9744 1.4181v-1zm-2.1919-1.0407c-0.5699-0.7204-0.8765-1.6822-0.8765-2.93h-1c0 1.4137 0.3498 2.612 1.0923 3.5505l0.7842-0.6205zm-0.8765-2.93c0-0.6975 0.129-1.7163 0.4005-3.0738l-0.9806-0.1961c-0.2754 1.3768-0.4199 2.4726-0.4199 3.2699h1zm0.4006-3.0745 2.7207-13.699-0.9808-0.1948-2.7207 13.699 0.9808 0.1948zm2.1543-14.291c-0.3386 0.0521-0.622 0.07622-0.8537 0.07622v1c0.297 0 0.6334-0.03056 1.0057-0.08784l-0.152-0.98838zm-0.8537 0.07622c-0.9909 0-1.641-0.20867-2.038-0.54009-0.3797-0.31698-0.6065-0.81309-0.6065-1.5849h-1c0 0.97818 0.2972 1.7946 0.9657 2.3526 0.6512 0.54358 1.5734 0.77241 2.6788 0.77241v-1zm-2.6445-2.125v-0.31445h-1v0.31445h1zm-0.7465 0.12056c1.1759 0.66635 2.4973 0.99468 3.9516 0.99468v-1c-1.2983 0-2.447-0.29147-3.4586-0.8647l-0.493 0.87002zm3.9516 0.99468c1.4631 0 2.7648-0.36475 3.8858-1.1088l-0.553-0.83318c-0.9388 0.62314-2.0433 0.94198-3.3328 0.94198v1zm3.1184-1.6201-3.1719 16.447 0.9819 0.1893 3.1719-16.447-0.9819-0.18936zm-3.172 16.448c-0.2818 1.4722-0.4328 2.5328-0.4328 3.1428h1c0-0.502 0.1316-1.474 0.4149-2.9549l-0.9821-0.1879zm-0.4328 3.1428c0 0.8165 0.1472 1.5196 0.5207 2.0287 0.3948 0.5379 0.9834 0.7818 1.6746 0.7818v-1c-0.4389 0-0.6979-0.1412-0.8683-0.3734-0.1916-0.2611-0.327-0.7133-0.327-1.4371h-1zm2.1953 2.8105c1.2952 0 2.5182-0.7299 3.6673-2.012l-0.7447-0.6674c-1.0566 1.1788-2.0303 1.6794-2.9226 1.6794v1zm3.6672-2.0118c1.145-1.2765 2.9848-3.9469 5.5065-7.9707l-0.8473-0.531c-2.5278 4.0334-4.3247 6.6312-5.4036 7.8339l0.7444 0.6678zm4.7996-7.8242 1.0937 0.7519 0.5666-0.824-1.0938-0.752-0.5665 0.8241zm3.3321 11.4 0.4115 0.2839 0.1139-0.1651-0.0317-0.198-0.4937 0.0792zm-2.0918-7.2461-0.4619 0.1914 9e-4 0.0021 0.461-0.1935zm-3.2266-5.4824-0.3211-0.3833-0.4015 0.3364 0.3547 0.3854 0.3679-0.3385zm3.5957-0.0137-0.4056 0.2925 0.0056 0.0075 0.4-0.3zm1.5313 3.3222 0.4695-0.1717v-2e-4l-0.4695 0.1719zm2.1464 7.1094-0.4879 0.1089 0.2638 1.1821 0.6469-1.0239-0.4228-0.2671zm5.004-12.783 0.0734-0.49457-0.5345-0.07942-0.0377 0.53907 0.4988 0.03492zm0.2324 7-0.4421-0.2336-6e-4 0.0012 0.4427 0.2324zm-4.6348 7.4922 0.4035 0.2953 2e-4 -2e-4 -0.4037-0.2951zm-5.7012 6.1797-0.3116-0.391-0.0012 9e-4 0.3128 0.3901zm-6.3711-0.752 0.263-0.4253-0.512-0.3164-0.2172 0.5612 0.4662 0.1805zm10.009-4.9053c-0.3986-2.4838-1.1072-4.9375-2.1245-7.3605l-0.922 0.3871c0.9879 2.3531 1.6738 4.7301 2.0591 7.1318l0.9874-0.1584zm-2.1236-7.3584c-1.0055-2.4261-2.1083-4.3123-3.3206-5.6295l-0.7358 0.6771c1.1028 1.1984 2.1511 2.9672 3.1326 5.3353l0.9238-0.3829zm-3.3674-4.9077c0.6066-0.5082 1.1894-0.7309 1.757-0.7309v-1c-0.8542 0-1.6568 0.3424-2.3992 0.9644l0.6422 0.7665zm1.757-0.7309c0.4286 0 0.7917 0.1823 1.1121 0.6265l0.811-0.585c-0.4817-0.6679-1.1302-1.0415-1.9231-1.0415v1zm1.1176 0.634c0.3603 0.4804 0.8494 1.5216 1.4617 3.1941l0.9391-0.3438c-0.609-1.6633-1.1408-2.837-1.6008-3.4503l-0.8 0.6zm1.4617 3.194c0.9515 2.6008 1.66 4.9491 2.1281 7.0465l0.9759-0.2178c-0.4798-2.15-1.2023-4.5412-2.1649-7.1722l-0.9391 0.3435zm3.0388 7.2047c3.1018-4.9098 4.8165-9.2527 5.0799-13.015l-0.9975-0.06983c-0.2471 3.529-1.8683 7.7082-4.9279 12.551l0.8455 0.5341zm4.5077-12.556c0.7677 0.11407 1.2809 0.2921 1.59 0.49872 0.2852 0.19069 0.376 0.38679 0.376 0.60629h1c0-0.60988-0.3079-1.0951-0.8202-1.4376-0.4885-0.32658-1.1716-0.53364-1.9989-0.65655l-0.1469 0.98914zm1.966 1.105c0 0.3339-0.1461 0.9253-0.5042 1.8207-0.3509 0.8771-0.882 1.9911-1.598 3.3461l0.8841 0.4672c0.7241-1.3703 1.2731-2.5189 1.6423-3.4419 0.3619-0.9047 0.5758-1.651 0.5758-2.1921h-1zm-2.1028 5.168c-1.4206 2.7055-2.9527 5.1817-4.5958 7.4296l0.8074 0.5901c1.6747-2.2912 3.2324-4.8098 4.6738-7.5548l-0.8854-0.4649zm-4.5956 7.4294c-1.8962 2.5914-3.7669 4.6153-5.6093 6.0839l0.6233 0.782c1.931-1.5392 3.8611-3.6351 5.793-6.2754l-0.807-0.5905zm-5.6105 6.0848c-1.8597 1.4914-3.3697 2.1596-4.5543 2.1596v1c1.5314 0 3.2662-0.8448 5.1799-2.3794l-0.6256-0.7802zm-4.5543 2.1596c-0.5525 0-0.8736-0.1182-1.0517-0.2684-0.1618-0.1365-0.2804-0.3631-0.2804-0.7765h-1c0 0.6165 0.1868 1.1624 0.6357 1.5409 0.4326 0.3648 1.0274 0.504 1.6964 0.504v-1zm-1.3321-1.0449c0-0.3366 0.0889-0.7651 0.2944-1.2961l-0.9325-0.361c-0.232 0.5993-0.3619 1.1551-0.3619 1.6571h1zm-0.4348-1.0513c0.5981 0.3697 1.3145 0.5396 2.1223 0.5396v-1c-0.6687 0-1.1919-0.1401-1.5964-0.3902l-0.5259 0.8506zm2.1223 0.5396c2.9155 0 5.5986-1.9281 8.0678-5.5071l-0.8231-0.5679c-2.398 3.4757-4.819 5.075-7.2447 5.075v1zm42.068-8.6895 0.474 0.1596 0.34-1.0091-0.994 0.383 0.18 0.4665zm-4.183 3.0215-0.089-0.4921-3e-3 6e-4 0.092 0.4915zm-9.16-5.6738 0.49 0.098v-6e-4l-0.49-0.0974zm2.666-13.426-0.491-0.09806v6.7e-4l0.491 0.09739zm-0.096-2.5293-0.176-0.46802-0.656 0.2467 0.447 0.5401 0.385-0.31878zm2.926 2.6934-0.49-0.10223-1e-3 0.00492 0.491 0.09731zm-2.379 11.99 0.49 0.0986v-0.0013l-0.49-0.0973zm9.752 3.7643c-0.289 0.8606-0.614 1.4292-0.946 1.7611l0.707 0.7071c0.489-0.4885 0.875-1.2233 1.187-2.1491l-0.948-0.3191zm-0.946 1.7611c-0.122 0.1219-0.394 0.2833-0.895 0.4546-0.486 0.1665-1.136 0.3252-1.957 0.4733l0.177 0.9841c0.847-0.1528 1.551-0.3222 2.104-0.5112 0.538-0.1842 0.99-0.4055 1.278-0.6937l-0.707-0.7071zm-2.855 0.9284c-1.626 0.3037-3.35 0.4564-5.172 0.4564v1c1.878 0 3.664-0.1573 5.356-0.4734l-0.184-0.983zm-5.172 0.4564c-1.412 0-2.383-0.2442-2.989-0.658-0.571-0.3904-0.872-0.9694-0.872-1.8225h-1c0 1.1339 0.425 2.0451 1.308 2.6482 0.848 0.5796 2.058 0.8323 3.553 0.8323v-1zm-3.861-2.4805c0-0.4989 0.144-1.5043 0.455-3.0602l-0.981-0.1961c-0.308 1.5432-0.474 2.6432-0.474 3.2563h1zm0.455-3.0608 2.666-13.426-0.981-0.19477-2.666 13.426 0.981 0.1948zm2.666-13.425c0.155-0.77567 0.242-1.3746 0.242-1.766h-1c0 0.28303-0.068 0.7961-0.223 1.5699l0.981 0.19611zm0.242-1.766c0-0.43893-0.158-0.83638-0.443-1.1801l-0.77 0.63756c0.153 0.18491 0.213 0.36168 0.213 0.54255h1zm-0.652-0.39331c0.597-0.22465 1.095-0.38972 1.496-0.49803 0.408-0.11036 0.687-0.15358 0.857-0.15358v-1c-0.303 0-0.683 0.07071-1.118 0.18821-0.442 0.11956-0.972 0.29628-1.587 0.52736l0.352 0.93604zm2.353-0.65161c0.187 0 0.241 0.05026 0.259 0.07155 0.03 0.03423 0.089 0.13727 0.089 0.39915h1c0-0.38526-0.083-0.76757-0.335-1.0569-0.264-0.30228-0.634-0.41379-1.013-0.41379v1zm0.348 0.4707c0-0.00406-3e-3 0.03872-0.022 0.16577-0.018 0.11344-0.045 0.26838-0.082 0.46669-0.075 0.39603-0.187 0.95267-0.337 1.6716l0.979 0.20445c0.151-0.72121 0.264-1.2857 0.34-1.6917 0.038-0.20273 0.068-0.36908 0.088-0.49717 0.017-0.11449 0.034-0.23349 0.034-0.31958h-1zm-0.442 2.3089-2.379 11.99 0.981 0.1946 2.379-11.99-0.981-0.19461zm-2.378 11.989c-0.346 1.7196-0.53 2.9637-0.53 3.6943h1c0-0.6183 0.163-1.7714 0.51-3.4971l-0.98-0.1972zm-0.53 3.6943c0 0.3836 0.109 0.7387 0.335 1.0448 0.222 0.3002 0.536 0.5255 0.906 0.6927 0.729 0.329 1.762 0.4715 3.046 0.4715v-1c-1.24 0-2.101-0.1423-2.634-0.383-0.261-0.1176-0.42-0.2484-0.514-0.3754-0.089-0.1212-0.139-0.2645-0.139-0.4506h-1zm4.287 2.209c2.321 0 4.702-0.4746 7.139-1.4143l-0.36-0.9331c-2.338 0.9014-4.597 1.3474-6.779 1.3474v1zm21.205-7.2539 0.5 0.0236-0.95-0.2411 0.45 0.2175zm-4.32 6.166 0.352 0.3554-0.352-0.3554zm-6.781 1.2441-0.417 0.2764 4e-3 5e-3 0.413-0.2814zm1.722-10.978-0.39-0.3119-1e-3 1e-3 0.391 0.3109zm10.473-1.9687-0.235 0.441 0.549 0.2934 0.168-0.5998-0.482-0.1346zm3.432-1.2578 0.418 0.27402 0.485-0.74089-0.885-0.03279-0.018 0.49966zm-1.19 3.2539 0.491 0.098v-6e-4l-0.491-0.0974zm-0.232 1.1621 0.49 0.1v-2e-3l-0.49-0.098zm5.031 5.0722 0.347 0.3603v-1e-4l-0.347-0.3602zm5.045-6.289 0.285-0.4111-0.424-0.2933-0.28 0.4323 0.419 0.2721zm1.066 0.7383 0.437 0.2445 0.222-0.3968-0.374-0.2588-0.285 0.4111zm-5.783 7.5332 0.34 0.3671v-7e-4l-0.34-0.3664zm-7.82-7.9434 0.4 0.3 0.32-0.4271-0.447-0.2917-0.273 0.4188zm-8.34 0.6426 0.429 0.2576v-0.0011l-0.429-0.2565zm7.779 0.123 0.421 0.2706 3e-3 -0.0056-0.424-0.265zm-0.532 2.2845c-1.145 2.3699-2.553 4.377-4.222 6.0281l0.704 0.7108c1.758-1.7396 3.23-3.8431 4.419-6.3039l-0.901-0.435zm-4.222 6.0281c-1.685 1.6671-3.046 2.3847-4.105 2.3847v1c1.475 0 3.085-0.9686 4.809-2.6739l-0.704-0.7108zm-4.105 2.3847c-0.787 0-1.413-0.3348-1.911-1.0666l-0.826 0.5628c0.668 0.9818 1.592 1.5038 2.737 1.5038v-1zm-1.907-1.0615c-0.503-0.7584-0.779-1.8004-0.779-3.169h-1c0 1.4934 0.3 2.7483 0.945 3.7217l0.834-0.5527zm-0.779-3.169c0-2.7436 0.826-5.1442 2.476-7.2222l-0.783-0.6219c-1.795 2.2605-2.693 4.882-2.693 7.8441h1zm2.475-7.2212c1.66-2.0797 3.528-3.0659 5.611-3.0659v-1c-2.455 0-4.589 1.1831-6.392 3.442l0.781 0.6239zm5.611-3.0659c1.272 0 2.681 0.39614 4.236 1.2262l0.471-0.88206c-1.655-0.8835-3.226-1.3441-4.707-1.3441v1zm4.953 0.91978c0.07-0.25044 0.245-0.46542 0.621-0.63036 0.393-0.17234 0.98-0.27575 1.796-0.27575v-1c-0.88 0-1.624 0.10851-2.197 0.35999-0.591 0.2589-1.016 0.67965-1.183 1.2769l0.963 0.26925zm2.417-0.90611c0.099 0 0.269 0.00423 0.514 0.01333l0.037-0.99932c-0.246-0.00913-0.432-0.01401-0.551-0.01401v1zm0.115-0.76034c-0.568 0.86594-0.982 2.0188-1.262 3.4304l0.981 0.1949c0.266-1.3408 0.645-2.3573 1.117-3.0773l-0.836-0.54803zm-1.262 3.4298-0.232 1.1621 0.98 0.1961 0.233-1.1621-0.981-0.1961zm-0.232 1.1601c-0.273 1.3356-0.407 2.8835-0.407 4.6391h1c0-1.7079 0.131-3.186 0.387-4.439l-0.98-0.2001zm-0.407 4.6391c0 1.0211 0.117 1.8578 0.396 2.4567 0.142 0.3059 0.336 0.5698 0.598 0.7569 0.266 0.1907 0.573 0.2806 0.901 0.2806v-1c-0.137 0-0.237-0.0349-0.319-0.0937-0.087-0.0624-0.184-0.1728-0.274-0.366-0.186-0.399-0.302-1.0594-0.302-2.0345h-1zm1.895 3.4942c0.624 0 1.299-0.2564 2.007-0.6884 0.715-0.4361 1.506-1.078 2.373-1.9123l-0.694-0.7205c-0.837 0.8063-1.57 1.3949-2.2 1.7791-0.636 0.3884-1.125 0.5421-1.486 0.5421v1zm4.38-2.6008c1.747-1.6822 3.452-3.8104 5.118-6.3771l-0.839-0.5442c-1.635 2.5192-3.293 4.5838-4.973 6.2009l0.694 0.7204zm4.413-6.2381 1.067 0.7383 0.569-0.8222-1.066-0.7383-0.57 0.8222zm0.915 0.0827c-1.665 2.9697-3.561 5.4376-5.687 7.4113l0.68 0.7328c2.214-2.055 4.172-4.6093 5.88-7.6551l-0.873-0.489zm-5.686 7.4105c-2.15 1.9872-3.893 2.875-5.253 2.875v1c1.758 0 3.743-1.1174 5.932-3.1407l-0.679-0.7343zm-5.253 2.875c-0.815 0-1.387-0.3233-1.786-0.9877-0.423-0.7052-0.667-1.8272-0.667-3.4342h-1c0 1.6743 0.249 3.0132 0.81 3.9487 0.586 0.9761 1.49 1.4732 2.643 1.4732v-1zm-2.453-4.4219c0-0.6722 0.027-1.5838 0.082-2.7381l-0.999-0.0472c-0.055 1.1608-0.083 2.0903-0.083 2.7853h1zm0.498-6.4481c-1.939-1.2648-3.63-1.9542-5.045-1.9542v1c1.12 0 2.609 0.5592 4.499 1.7918l0.546-0.8376zm-5.045-1.9542c-1.62 0-2.946 1.0009-3.997 2.759l0.858 0.5131c0.954-1.596 2.008-2.2721 3.139-2.2721v-1zm-3.996 2.758c-1.058 1.7588-1.576 3.8337-1.576 6.2049h1c0-2.2227 0.485-4.1126 1.433-5.6897l-0.857-0.5152zm-1.576 6.2049c0 0.959 0.154 1.765 0.533 2.3448 0.403 0.6166 1.02 0.9169 1.772 0.9169v-1c-0.452 0-0.736-0.1601-0.935-0.464-0.223-0.3408-0.37-0.9157-0.37-1.7977h-1zm2.305 3.2617c0.493 0 1.003-0.2614 1.501-0.6374 0.514-0.3872 1.089-0.9526 1.723-1.6807 1.27-1.4581 2.829-3.6283 4.675-6.4974l-0.841-0.541c-1.837 2.8549-3.365 4.9777-4.588 6.3816-0.612 0.7028-1.135 1.2107-1.571 1.539-0.45 0.3395-0.74 0.4359-0.899 0.4359v1zm7.902-8.821c0 1e-4 1e-3 -3e-4 1e-3 -0.0012 1e-3 -1e-3 2e-3 -0.0023 3e-3 -0.0039 2e-3 -0.0035 5e-3 -8e-3 9e-3 -0.0138 8e-3 -0.0117 0.019-0.0269 0.032-0.0459 0.027-0.0381 0.063-0.0882 0.109-0.1509 0.092-0.1253 0.219-0.2968 0.383-0.5149l-0.8-0.6c-0.32 0.4263-0.525 0.7046-0.585 0.8006l0.848 0.53zm15.696 10.508 0.411 0.2839 0.114-0.1651-0.032-0.198-0.493 0.0792zm-2.092-7.2461-0.462 0.1914 1e-3 0.0021 0.461-0.1935zm-3.227-5.4824-0.321-0.3833-0.401 0.3364 0.354 0.3854 0.368-0.3385zm3.596-0.0137-0.406 0.2925 6e-3 0.0075 0.4-0.3zm1.531 3.3222 0.47-0.1717v-2e-4l-0.47 0.1719zm2.147 7.1094-0.488 0.1089 0.263 1.1821 0.647-1.0239-0.422-0.2671zm5.004-12.783 0.073-0.49457-0.535-0.07942-0.037 0.53907 0.499 0.03492zm0.232 7-0.442-0.2336-1e-3 0.0012 0.443 0.2324zm-4.635 7.4922 0.404 0.2953v-2e-4l-0.404-0.2951zm-5.701 6.1797-0.312-0.391-1e-3 9e-4 0.313 0.3901zm-6.371-0.752 0.263-0.4253-0.512-0.3164-0.217 0.5612 0.466 0.1805zm10.009-4.9053c-0.398-2.4838-1.107-4.9375-2.124-7.3605l-0.922 0.3871c0.988 2.3531 1.674 4.7301 2.059 7.1318l0.987-0.1584zm-2.123-7.3584c-1.006-2.4261-2.109-4.3123-3.321-5.6295l-0.736 0.6771c1.103 1.1984 2.151 2.9672 3.133 5.3353l0.924-0.3829zm-3.368-4.9077c0.607-0.5082 1.19-0.7309 1.757-0.7309v-1c-0.854 0-1.657 0.3424-2.399 0.9644l0.642 0.7665zm1.757-0.7309c0.429 0 0.792 0.1823 1.112 0.6265l0.811-0.585c-0.481-0.6679-1.13-1.0415-1.923-1.0415v1zm1.118 0.634c0.36 0.4804 0.849 1.5216 1.462 3.1941l0.939-0.3438c-0.609-1.6633-1.141-2.837-1.601-3.4503l-0.8 0.6zm1.462 3.194c0.951 2.6008 1.66 4.9491 2.128 7.0465l0.976-0.2178c-0.48-2.15-1.203-4.5412-2.165-7.1722l-0.939 0.3435zm3.038 7.2047c3.102-4.9098 4.817-9.2527 5.08-13.015l-0.997-0.06983c-0.247 3.529-1.868 7.7082-4.928 12.551l0.845 0.5341zm4.508-12.556c0.768 0.11407 1.281 0.2921 1.59 0.49872 0.285 0.19069 0.376 0.38679 0.376 0.60629h1c0-0.60988-0.308-1.0951-0.82-1.4376-0.489-0.32658-1.172-0.53364-1.999-0.65655l-0.147 0.98914zm1.966 1.105c0 0.3339-0.146 0.9253-0.504 1.8207-0.351 0.8771-0.882 1.9911-1.598 3.3461l0.884 0.4672c0.724-1.3703 1.273-2.5189 1.642-3.4419 0.362-0.9047 0.576-1.651 0.576-2.1921h-1zm-2.103 5.168c-1.42 2.7055-2.952 5.1817-4.595 7.4296l0.807 0.5901c1.675-2.2912 3.232-4.8098 4.674-7.5548l-0.886-0.4649zm-4.595 7.4294c-1.897 2.5914-3.767 4.6153-5.61 6.0839l0.624 0.782c1.931-1.5392 3.861-3.6351 5.793-6.2754l-0.807-0.5905zm-5.611 6.0848c-1.86 1.4914-3.37 2.1596-4.554 2.1596v1c1.531 0 3.266-0.8448 5.18-2.3794l-0.626-0.7802zm-4.554 2.1596c-0.553 0-0.874-0.1182-1.052-0.2684-0.162-0.1365-0.28-0.3631-0.28-0.7765h-1c0 0.6165 0.187 1.1624 0.635 1.5409 0.433 0.3648 1.028 0.504 1.697 0.504v-1zm-1.332-1.0449c0-0.3366 0.089-0.7651 0.294-1.2961l-0.932-0.361c-0.232 0.5993-0.362 1.1551-0.362 1.6571h1zm-0.435-1.0513c0.598 0.3697 1.314 0.5396 2.122 0.5396v-1c-0.668 0-1.192-0.1401-1.596-0.3902l-0.526 0.8506zm2.122 0.5396c2.916 0 5.599-1.9281 8.068-5.5071l-0.823-0.5679c-2.398 3.4757-4.819 5.075-7.245 5.075v1zm20.782-11.396v-0.5h-0.5v0.5h0.5zm9.871 1.2031-0.311-0.392 0.311 0.392zm6.384-7.3828 0.242-0.4376-0.416-0.23-0.25 0.4039 0.424 0.2637zm1.163 0.6426 0.44 0.236 0.233-0.4349-0.432-0.2387-0.241 0.4376zm-6.973 8.2851-0.304-0.3972v5e-4l0.304 0.3967zm-12.018 1.6954-0.372 0.3337 2e-3 0.0018 0.37-0.3355zm1.162-11.115-0.367-0.339-1e-3 1e-3 0.368 0.338zm9.065-1.9277-0.323 0.38211 3e-3 2e-3 0.32-0.38411zm-1.887 6.7129-0.269-0.4214-1e-3 6e-4 0.27 0.4208zm-6.658 0.5742-0.496-0.0667-0.08 0.5977 0.602-0.0317-0.026-0.4993zm4.894-1.6406-0.293-0.4045-2e-3 9e-4 0.295 0.4036zm-5.503 2.9531c0 1.3939 0.293 2.5325 0.966 3.3274 0.686 0.8109 1.693 1.1785 2.924 1.1785v-1c-1.029 0-1.717-0.3001-2.161-0.8245-0.458-0.5404-0.729-1.4047-0.729-2.6814h-1zm3.89 4.5059c2.119 0 4.387-1.0079 6.791-2.9107l-0.621-0.7841c-2.317 1.8341-4.369 2.6948-6.17 2.6948v1zm6.791-2.9107c2.414-1.9105 4.579-4.418 6.499-7.5111l-0.849-0.5275c-1.871 3.0136-3.963 5.428-6.271 7.2545l0.621 0.7841zm5.832-7.3373 1.163 0.6426 0.483-0.8752-1.162-0.6426-0.484 0.8752zm0.964-0.0311c-1.755 3.2763-4.033 5.982-6.836 8.124l0.607 0.7945c2.922-2.233 5.292-5.0508 7.11-8.4464l-0.881-0.4721zm-6.836 8.1245c-2.8 2.1469-5.403 3.178-7.817 3.178v1c2.708 0 5.519-1.1564 8.425-3.3845l-0.608-0.7935zm-7.817 3.178c-1.523 0-2.678-0.4851-3.526-1.4215l-0.741 0.6711c1.066 1.1782 2.508 1.7504 4.267 1.7504v-1zm-3.524-1.4197c-0.845-0.9415-1.295-2.2546-1.295-4.0002h-1c0 1.9184 0.498 3.4946 1.55 4.6677l0.745-0.6675zm-1.295-4.0002c0-2.5232 0.818-4.6616 2.453-6.4433l-0.737-0.676c-1.811 1.9736-2.716 4.356-2.716 7.1193h1zm2.452-6.4423c1.642-1.7807 3.594-2.6554 5.88-2.6554v-1c-2.58 0-4.794 1.0029-6.615 2.9774l0.735 0.678zm5.88-2.6554c1.092 0 1.906 0.27374 2.494 0.77078l0.645-0.76418c-0.815-0.68789-1.879-1.0066-3.139-1.0066v1zm2.497 0.77278c0.587 0.4898 0.886 1.1373 0.886 1.9948h1c0-1.1294-0.412-2.0679-1.246-2.763l-0.64 0.76822zm0.886 1.9948c0 1.3938-0.83 2.7035-2.722 3.9126l0.538 0.8427c2.045-1.3065 3.184-2.8861 3.184-4.7553h-1zm-2.723 3.9132c-1.871 1.2012-4.032 1.8075-6.497 1.8075v1c2.638 0 4.989-0.6515 7.037-1.9659l-0.54-0.8416zm-6.362 1.4943c1.989-0.1047 3.717-0.6781 5.164-1.7364l-0.591-0.8071c-1.269 0.9287-2.804 1.449-4.625 1.5449l0.052 0.9986zm5.162-1.7354c1.455-1.0569 2.257-2.3405 2.257-3.8498h-1c0 1.0973-0.564 2.1106-1.844 3.0408l0.587 0.809zm2.257-3.8498c0-0.6471-0.143-1.2258-0.516-1.6451-0.383-0.43033-0.93-0.60494-1.542-0.60494v1c0.426 0 0.659 0.117 0.795 0.27 0.146 0.164 0.263 0.4603 0.263 0.98h1zm-2.058-2.25c-1.444 0-2.719 0.78264-3.825 2.1867l0.786 0.6187c0.99-1.2573 2.004-1.8054 3.039-1.8054v-1zm-3.825 2.1867c-1.11 1.4097-1.792 3.1097-2.058 5.0825l0.991 0.1334c0.245-1.8189 0.867-3.3454 1.853-4.5972l-0.786-0.6187zm15.268 12.054 0.213 0.4524 0.306-0.144-0.02-0.3378-0.499 0.0294zm-2.393-3.9238-0.49-0.0985v2e-3l0.49 0.0965zm0.684-3.4043-0.49-0.1015v3e-3l0.49 0.0985zm0.178-5.8242-0.162-0.473-0.693 0.2373 0.473 0.5586 0.382-0.3229zm2.611 4.6757-0.489-0.1045-2e-3 0.0084 0.491 0.0961zm-0.779 3.9785-0.491-0.0961 0.935 0.3251-0.444-0.229zm5.195-7.7929-0.364-0.3427v1e-4l0.364 0.3426zm6.057-2.3516-0.313 0.39048 6e-3 0.00473 0.307-0.39521zm-1.532 3.5821-0.45 0.2167 0.266 0.5531 0.488-0.3724-0.304-0.3974zm-5.906 2.6113-0.404-0.2947v9e-4l0.404 0.2938zm-2.898 4.7441 0.446 0.2256 1e-3 -1e-3 -0.447-0.2246zm-1.231 3.4727h-0.5v0.0147l1e-3 0.0146 0.499-0.0293zm-0.199-0.22c-0.6 0.2822-1.015 0.3899-1.277 0.3899v1c0.485 0 1.063-0.184 1.703-0.4851l-0.426-0.9048zm-1.277 0.3899c-0.402 0-0.611-0.0901-0.715-0.1825-0.093-0.082-0.18-0.2323-0.18-0.548h-1c0 0.5046 0.146 0.9696 0.518 1.2978 0.36 0.3177 0.849 0.4327 1.377 0.4327v-1zm-0.895-0.7305c0-0.3594 0.151-1.3479 0.483-3.0343l-0.981-0.193c-0.325 1.6494-0.502 2.7482-0.502 3.2273h1zm0.483-3.0324 0.683-3.4043-0.98-0.1969-0.684 3.4043 0.981 0.1969zm0.683-3.4013c0.42-2.0283 0.639-3.5699 0.639-4.5995h-1c0 0.921-0.2 2.3781-0.619 4.3966l0.98 0.2029zm0.639-4.5995c0-0.6299-0.182-1.1912-0.57-1.6491l-0.763 0.6459c0.214 0.253 0.333 0.5758 0.333 1.0032h1zm-0.789-0.8532c0.935-0.3207 1.654-0.4651 2.176-0.4651v-1c-0.682 0-1.522 0.18365-2.5 0.51923l0.324 0.9459zm2.176-0.4651c0.205 0 0.282 0.0593 0.324 0.1133 0.061 0.0768 0.133 0.2498 0.133 0.6035h1c0-0.4576-0.088-0.893-0.347-1.2217-0.276-0.35167-0.678-0.49513-1.11-0.49513v1zm0.457 0.7168c0 0.2019-0.049 0.6166-0.164 1.2785-0.112 0.6494-0.282 1.5047-0.509 2.5682l0.978 0.2089c0.229-1.0693 0.401-1.9389 0.516-2.6066 0.114-0.6552 0.179-1.1497 0.179-1.449h-1zm-0.675 3.855-0.779 3.9785 0.981 0.1923 0.78-3.9786-0.982-0.1922zm0.156 4.3036c1.711-3.3215 3.418-5.8751 5.115-7.6793l-0.728-0.6852c-1.784 1.8963-3.541 4.538-5.276 7.9066l0.889 0.4579zm5.115-7.6792c1.725-1.8327 3.186-2.6318 4.394-2.6318v-1c-1.636 0-3.347 1.0603-5.122 2.9464l0.728 0.6854zm4.394-2.6318c0.397 0 0.717 0.1126 0.986 0.32793l0.625-0.78087c-0.46-0.36799-1.005-0.54706-1.611-0.54706v1zm0.992 0.33271c0.26 0.20129 0.354 0.40897 0.354 0.64387h1c0-0.58548-0.272-1.0705-0.741-1.4343l-0.613 0.79042zm0.354 0.64387c0 0.1461-0.086 0.4053-0.407 0.7978-0.312 0.3813-0.797 0.8305-1.475 1.3477l0.607 0.7949c0.708-0.5401 1.261-1.0434 1.642-1.5098 0.372-0.4551 0.633-0.9388 0.633-1.4306h-1zm-1.128 2.3262c-0.198-0.4119-0.454-0.7556-0.784-0.9969-0.336-0.2457-0.723-0.3664-1.143-0.3664v1c0.218 0 0.396 0.0592 0.552 0.1736 0.163 0.1187 0.326 0.315 0.474 0.6232l0.901-0.4335zm-1.927-1.3633c-0.751 0-1.522 0.3943-2.296 1.0387-0.782 0.6522-1.628 1.6112-2.538 2.858l0.808 0.5894c0.886-1.2142 1.676-2.1008 2.37-2.6792 0.704-0.586 1.25-0.8069 1.656-0.8069v-1zm-4.834 3.8976c-1.128 1.5523-2.108 3.1568-2.941 4.8133l0.894 0.4492c0.807-1.6065 1.759-3.1648 2.856-4.6749l-0.809-0.5876zm-2.94 4.8123c-0.416 0.8221-0.734 1.5377-0.948 2.1436-0.212 0.5976-0.337 1.1236-0.337 1.5547h1c0-0.2616 0.081-0.6608 0.279-1.2207 0.196-0.5517 0.493-1.2261 0.898-2.0264l-0.892-0.4512zm-1.284 3.7276 0.014 0.2325 0.998-0.0588-0.014-0.2324-0.998 0.0587zm20.474-4.5137-0.245-0.4361-0.398 0.2234 0.187 0.4169 0.456-0.2042zm-1.285 5.6191-0.331-0.3748-2e-3 0.0015 0.333 0.3733zm-6.098-3.0214-0.316-0.3874-2e-3 0.0016 0.318 0.3858zm4.471-2.5977 0.216 0.4507 0.502-0.2411-0.293-0.4731-0.425 0.2635zm-1.094-1.7637 0.425-0.2635v-3e-4l-0.425 0.2638zm1.025-9.2011 0.179-0.46703-0.211-0.08066-0.2 0.10497 0.232 0.44272zm-0.505 4.7304-0.256-0.4296-0.413 0.2458 0.229 0.4224 0.44-0.2386zm1.558 2.8711-0.439 0.2386 1e-3 0.0022 0.438-0.2408zm1.217 2.2149-0.438 0.2407 0.249 0.4542 0.445-0.2656-0.256-0.4293zm3.938-2.6661 0.32 0.3838 2e-3 -0.0019-0.322-0.3819zm3.349-3.4453 0.261-0.4263-0.36-0.2209-0.278 0.3189 0.377 0.3283zm1.094 0.67 0.401 0.2991 0.327-0.4392-0.467-0.2863-0.261 0.4264zm-9.994 7.8203 0.465-0.1843-0.207-0.5219-0.495 0.2657 0.237 0.4405zm-0.438 3.6504-0.366-0.341-2e-3 0.0031 0.368 0.3379zm2.306-4.6767c0.287 0.6415 0.421 1.2327 0.421 1.7782h1c0-0.7122-0.176-1.4427-0.509-2.1866l-0.912 0.4084zm0.421 1.7782c0 1.2336-0.508 2.3146-1.581 3.2619l0.662 0.7497c1.26-1.1126 1.919-2.4561 1.919-4.0116h-1zm-1.583 3.2634c-1.075 0.9572-2.323 1.4319-3.769 1.4319v1c1.69 0 3.176-0.5642 4.434-1.6852l-0.665-0.7467zm-3.769 1.4319c-0.83 0-1.507-0.2121-2.056-0.6143l-0.591 0.8068c0.745 0.5457 1.637 0.8075 2.647 0.8075v-1zm-2.056-0.6143c-0.548-0.4016-0.766-0.8332-0.766-1.3056h-1c0 0.8584 0.429 1.5661 1.175 2.1124l0.591-0.8068zm-0.766-1.3056c0-0.4902 0.306-1.0827 1.144-1.7744l-0.636-0.7715c-0.93 0.7667-1.508 1.6142-1.508 2.5459h1zm1.142-1.7728c0.846-0.6901 2.292-1.5353 4.371-2.5343l-0.433-0.9014c-2.094 1.0062-3.629 1.8928-4.57 2.661l0.632 0.7747zm4.58-3.2485-1.094-1.7637-0.85 0.527 1.094 1.7637 0.85-0.527zm-1.094-1.764c-1.325-2.1324-1.921-3.7013-1.921-4.7538h-1c0 1.3538 0.735 3.13 2.071 5.2815l0.85-0.5277zm-1.921-4.7538c0-1.4866 0.844-2.7383 2.754-3.7408l-0.465-0.88544c-2.119 1.1121-3.289 2.6494-3.289 4.6263h1zm2.343-3.7165c1.219 0.46622 1.538 0.94927 1.538 1.324h1c0-1.0654-0.921-1.7764-2.181-2.2581l-0.357 0.93405zm1.538 1.324c0 0.7393-0.575 1.5895-2.121 2.5098l0.511 0.8592c1.608-0.9573 2.61-2.0666 2.61-3.369h-1zm-2.305 3.178 1.559 2.8711 0.879-0.4771-1.559-2.8711-0.879 0.4771zm1.56 2.8733 1.217 2.2148 0.876-0.4815-1.217-2.2148-0.876 0.4815zm1.911 2.4034c1.75-1.0441 3.088-1.9484 4.002-2.7116l-0.641-0.7675c-0.854 0.7134-2.141 1.5864-3.873 2.6204l0.512 0.8587zm4.004-2.7135c0.913-0.7718 2.049-1.9424 3.404-3.4989l-0.754-0.6566c-1.343 1.5426-2.44 2.6688-3.295 3.3918l0.645 0.7637zm2.766-3.4008 1.094 0.6699 0.522-0.8527-1.094-0.6699-0.522 0.8527zm0.954-0.0556c-1.913 2.5634-4.415 4.7153-7.514 6.4529l0.489 0.8722c3.209-1.7989 5.821-4.0402 7.827-6.7268l-0.802-0.5983zm-9.83 7.679c-1.351 0.7261-2.39 1.3839-3.098 1.9738-0.354 0.2949-0.641 0.5858-0.843 0.8737-0.2 0.2852-0.342 0.6036-0.342 0.9426h1c0-0.0575 0.026-0.176 0.161-0.3682 0.133-0.1895 0.348-0.4165 0.664-0.6798 0.632-0.5266 1.603-1.1472 2.931-1.8612l-0.473-0.8809zm-4.283 3.7901c0 0.5124 0.197 0.9586 0.623 1.2525 0.393 0.2707 0.92 0.3686 1.504 0.3686v-1c-0.5 0-0.787-0.089-0.936-0.192-0.116-0.0798-0.191-0.1941-0.191-0.4291h-1zm2.127 1.6211c0.93 0 1.72-0.3233 2.324-0.9825l-0.737-0.6757c-0.399 0.4345-0.912 0.6582-1.587 0.6582v1zm2.321-0.9794c0.602-0.6455 0.886-1.4718 0.886-2.4327h-1c0 0.7526-0.217 1.3208-0.618 1.7508l0.732 0.6819zm0.886-2.4327c0-0.5804-0.119-1.1623-0.349-1.7429l-0.93 0.3686c0.189 0.4766 0.279 0.9338 0.279 1.3743h1z"/>
</g>
<defs>
<filter id="a" x=".40234" y=".046875" width="214.98" height="39.719" color-interpolation-filters="sRGB" filterUnits="userSpaceOnUse">
<feFlood flood-opacity="0" result="BackgroundImageFix"/>
<feColorMatrix in="SourceAlpha" result="hardAlpha" values="0 0 0 0 0 0 0 0 0 0 0 0 0 0 0 0 0 0 127 0"/>
<feOffset dy="4"/>
<feGaussianBlur stdDeviation="2"/>
<feComposite in2="hardAlpha" operator="out"/>
<feColorMatrix values="0 0 0 0 0 0 0 0 0 0 0 0 0 0 0 0 0 0 0.25 0"/>
<feBlend in2="BackgroundImageFix" result="effect1_dropShadow_407_48"/>
<feBlend in="SourceGraphic" in2="effect1_dropShadow_407_48" result="shape"/>
</filter>
</defs>
</svg>
